<svg xmlns="http://www.w3.org/2000/svg" xmlns:xlink="http://www.w3.org/1999/xlink" viewBox="0 0 248.78 94.91"><defs><style>.cls-1{fill:#fff;}.cls-2{fill:url(#Dégradé_sans_nom);}</style><radialGradient id="Dégradé_sans_nom" cx="-24.12" cy="197.74" r="1" gradientTransform="matrix(85.75, 0, 0, -85.75, 2300.43, 16967.05)" gradientUnits="userSpaceOnUse"><stop offset="0" stop-color="#fff"/><stop offset="1" stop-color="#87c3e7"/></radialGradient></defs><title>Fichier 1</title><g id="Calque_2" data-name="Calque 2"><g id="svg3205"><path id="path3052" class="cls-1" d="M147,45.89c-2.07,1-4.91,1-7.8,1H134V32.82h5.26c3,0,5.79,0,7.8,1s3.14,2.71,3.14,6.19c0,3.29-1.25,5-3.14,5.89m-108.46.4,9.15-14v14ZM147,21.07c-.74-.05-1.51-.07-2.29-.07H128.26l-9.49,12.42V46.29h-27V33.42h16.3L117.55,21H76.63V46.29H63V21H39.84L22.5,46.29H8.63L0,58.71H14L3.42,74.12H20.35L30.44,58.71H47.72V74.12H63V58.71H76.63V74.12H91.77V58.71h27V74.12H134V58.71h11.31c13.26,0,20.7-5.84,20.7-19.16,0-12.13-7.64-17.82-18.95-18.48"/><path id="path3078" class="cls-2" d="M196.83.05c-1.73.12-2.67.35-2.91.71h0c-.13.42.76.53,2.68.47h0c1.9-.12,2.86-.41,2.86-.83h0c0-.27-.51-.4-1.48-.4h0c-.33,0-.71,0-1.15.05m7.45.41c.16.43,1.37.77,3.57,1.07h0c2.14.18,3,.05,2.75-.35h0c-.28-.38-1.56-.84-3.52-1h0A9.66,9.66,0,0,0,205.61,0h0c-1,0-1.41.21-1.33.42m-6,1.61c0,.71,1.25,1.12,3.7,1.18h0A8,8,0,0,0,204.58,3h0c.65-.19.89-.42.77-.73h0c-.24-.64-1.43-1-3.63-1.12h0l-.55,0h0c-1.85,0-2.8.31-2.85.91m-7.62-.24c-1.79.3-2.86.78-3.22,1.36h0c-.35.66.42.78,2.38.43h0c2-.3,3.11-.72,3.34-1.38h0c.12-.36-.22-.56-1-.56h0a9.43,9.43,0,0,0-1.49.15m20.13,0c-.42,0-.78.36-.65.65h0c.48.9,2.57,1.74,4.63,2.09h0a7.44,7.44,0,0,0,2.46.18h0c.53-.12.65-.36.35-.78h0l-.83-.59h0L218.4,4h0c1.91.54,2.56.54,2,0h0a14.22,14.22,0,0,0-4.06-1.78h0a6.07,6.07,0,0,0-2.2-.19h0c-.14.07.41.38.7.55h0A5.64,5.64,0,0,0,213.22,2h0a9.54,9.54,0,0,0-1.92-.19h0a3,3,0,0,0-.47,0m-25.19.31a6.25,6.25,0,0,0-2.51,1.11h0c-.07.19.44.19,1.5,0h0a6.36,6.36,0,0,0,2.55-1.11h0c.15-.16.11-.24-.14-.24h0a7.35,7.35,0,0,0-1.4.24M206,3.08c-.65.24-.9.54-.83,1h0c.18,1,1.61,1.67,4.28,2h0A7.44,7.44,0,0,0,212,5.82h0c.59-.24.83-.54.65-1h0c-.42-1-1.85-1.62-4.17-1.9h0a6.18,6.18,0,0,0-1-.09h0a4.79,4.79,0,0,0-1.4.2M195.82,3c-2,.17-3.16.65-3.46,1.48h0c-.05.36.21.61.84.83h0a5.61,5.61,0,0,0,2.33.24h0c2.11,0,3.39-.66,3.39-1.55h0c0-.67-.77-1-2.33-1h0l-.77,0M180,4.69a6.86,6.86,0,0,0-2.63,1.54h0c-.4.49.07.54,1.26.13h0a7.22,7.22,0,0,0,2.74-1.55h0c.19-.25.12-.39-.19-.39h0a3.85,3.85,0,0,0-1.18.27m41.15.42.83.83h0l-2.2-.89h0a6.72,6.72,0,0,0-2.2-.36h0c-.53.12-.66.42-.35.89h0a5,5,0,0,0,1.84,1.67h0a13.39,13.39,0,0,0,3,1.37h0a6.92,6.92,0,0,0,2.15.17h0c.35-.07.34-.63,0-1h0a4.66,4.66,0,0,0-.77-.77h0A13.16,13.16,0,0,0,226,8.34h0a9,9,0,0,0,1.13.28h0a2.18,2.18,0,0,0,.37.65h0c.19.22.53.48.87.79h0c-.47-.25-1-.49-1.42-.72h0A3.14,3.14,0,0,0,224.83,9h0c-.48.18-.53.59-.11,1.37h0A7.92,7.92,0,0,0,226.08,12h0a10.19,10.19,0,0,0-2.92-1.43h0a2.83,2.83,0,0,0-2.44,0h0c-.6.3-.77.89-.53,1.67h0a6.32,6.32,0,0,0,2.14,2.56h0a8.93,8.93,0,0,0,3.27,1.78h0a4,4,0,0,0,2.44-.18h0a1.73,1.73,0,0,0,.13-1.9h0A19.69,19.69,0,0,0,227,12.79h0a11.81,11.81,0,0,0,3.15,2h0a5.13,5.13,0,0,0,1.13.31h0a3.35,3.35,0,0,0,.31.89h0c.14.29.59.91.88,1.36h0l-1.54-.82h0a2.49,2.49,0,0,0-2.32.05h0c-.48.42-.55,1.26-.19,2.45h0c.19.38.36.76.54,1.13h0a5.66,5.66,0,0,0-2.14-1.07h0a6.12,6.12,0,0,0-2.81.23h0a4.2,4.2,0,0,0-.05-1.54h0a5.68,5.68,0,0,0-2.09-2.8h0a8.28,8.28,0,0,0-3.51-1.67h0a4.13,4.13,0,0,0-3.16.42h0a2.06,2.06,0,0,0-.89,2.38h0a5.51,5.51,0,0,0,2.15,3h0A9,9,0,0,0,220.31,21h0a4.33,4.33,0,0,0,2.43-.24h0a4,4,0,0,0-.11,2.39h0a8,8,0,0,0,1.78,3.34h0a6.54,6.54,0,0,0-3.33-1.68h0a4.28,4.28,0,0,0-3.57,1h0a4,4,0,0,0-1.14,3.57h0a7.08,7.08,0,0,0,2.2,4.11h0a6.72,6.72,0,0,0,4.06,2.15h0a4.21,4.21,0,0,0,2.85-.78h0a6.2,6.2,0,0,0-.41,3.1h0a9.14,9.14,0,0,0,1.25,3.75h0a5.46,5.46,0,0,0-3.09-1.19h0a5.78,5.78,0,0,0-4.42,1.84h0a6.44,6.44,0,0,0-2,4.9h0v.41a6.46,6.46,0,0,0,2,4.94h0a5.77,5.77,0,0,0,4.42,1.79h0a5.71,5.71,0,0,0,3.09-1.08h0a8.43,8.43,0,0,0-1.25,3.64h0a6.27,6.27,0,0,0,.41,3.16h0a3.85,3.85,0,0,0-2.85-.72h0a6.44,6.44,0,0,0-4.06,2.08h0a7.45,7.45,0,0,0-2.2,4.17h0a4.09,4.09,0,0,0,1.14,3.58h0a4.19,4.19,0,0,0,3.57,1h0a6.51,6.51,0,0,0,3.33-1.66h0a8,8,0,0,0-1.78,3.33h0a4,4,0,0,0,.11,2.39h0a5.91,5.91,0,0,0-2.43-.19h0a8.56,8.56,0,0,0-3.87,1.79h0a5.53,5.53,0,0,0-2.15,3h0a2,2,0,0,0,.89,2.38h0a4.13,4.13,0,0,0,3.16.42h0A8.28,8.28,0,0,0,221.85,80h0a5.59,5.59,0,0,0,2.09-2.87h0a2.56,2.56,0,0,0,.05-1.48h0a4.58,4.58,0,0,0,2.81.18h0a9,9,0,0,0,2.14-1h0a6.92,6.92,0,0,0-.58,1.15h0c-.35.79-.27,2.09.23,2.42h0a3.36,3.36,0,0,0,2.32.06h0a3.35,3.35,0,0,0,1.54-.83h0a4.54,4.54,0,0,0-.88,1.43h0a4.87,4.87,0,0,0-.31.83h0c-.37.11-.75.2-1.13.3h0a11.86,11.86,0,0,0-3.15,2h0a11.54,11.54,0,0,0,1.19-1.72h0a1.71,1.71,0,0,0-.13-1.92h0a3.55,3.55,0,0,0-2.44-.17h0a8.07,8.07,0,0,0-3.27,1.78h0a6.54,6.54,0,0,0-2.14,2.5h0a1.5,1.5,0,0,0,.53,1.79h0a4.43,4.43,0,0,0,2.44-.06h0A8.1,8.1,0,0,0,226,83h0a8.72,8.72,0,0,0-1.3,1.61h0c-.42.77-.37,1.24.11,1.43h0a3.35,3.35,0,0,0,2.15-.42h0l1.42-.72h0c-.29.32-.59.64-.89,1h0l-.35.48h0l-1,.36h0A11.36,11.36,0,0,0,223.52,88h0a10.29,10.29,0,0,0,.83-.9h0c.25-.35.31-.83,0-1h0a5,5,0,0,0-2.15.24h0c-2.56.77-4.17,1.73-4.88,2.93h0c-.3.47-.11.76.35.89h0a6.26,6.26,0,0,0,2.2-.24h0a18.3,18.3,0,0,0,2.28-1h0a5.21,5.21,0,0,0-.91.78h0c-.35.42-.32.68.06.66h0a8.81,8.81,0,0,0,2-.61h0a21.08,21.08,0,0,0,2-1h0c7.53-3.9,23.6-20.43,23.6-41.26h0c0-20.82-14-35.82-22-40.5h0c-1.16-.68-2.34-1.35-3.51-2h0a7.32,7.32,0,0,0-2-.54h0c-.42,0-.42.18-.07.6M239,23.57A2.6,2.6,0,0,1,237.4,22h0c-.36-.85-.24-1.14.42-.9h0a2.92,2.92,0,0,1,1.48,1.55h0c.29.63.27.94-.06.94h0a.84.84,0,0,1-.29-.05M235,27.92a3.43,3.43,0,0,1-2.2-2.14h0a1.48,1.48,0,0,1-.05-1.25h0c.17-.24.41-.31.82-.24h0a3.26,3.26,0,0,1,2.1,2h0c.43,1.08.27,1.62-.44,1.62H235m-5.89,5.66a3.57,3.57,0,0,1-1.61-1.31h0a3.31,3.31,0,0,1-.71-2h0a1.42,1.42,0,0,1,.71-1.36h0a1.69,1.69,0,0,1,1.55-.07h0a3.28,3.28,0,0,1,2.2,3.1h0a1.45,1.45,0,0,1-.53,1.43h0a1.52,1.52,0,0,1-.92.28h0a2.88,2.88,0,0,1-.69-.1m14.66,1.84c-.66-.05-1.13-.65-1.55-1.84h0c-.36-1.14-.18-1.67.47-1.61h0a2.82,2.82,0,0,1,1.55,1.85h0c.28,1.06.19,1.61-.38,1.61h-.09m-5,5.91a2.9,2.9,0,0,1-1.25-2.87h0a1.32,1.32,0,0,1,.53-1.06h0a1.23,1.23,0,0,1,1.08.17h0a3.09,3.09,0,0,1,1.25,2.8h0a1.26,1.26,0,0,1-.54,1.13h0a.65.65,0,0,1-.36.1h0a1.27,1.27,0,0,1-.71-.27m5.89,6.13c.12-1.19.42-1.79,1-1.79h0c.61,0,.9.6.9,1.79h0c0,1.19-.29,1.78-.9,1.78h0c-.53,0-.83-.59-1-1.78m-6.61,10a1.24,1.24,0,0,1-.53-1h0a3,3,0,0,1,1.25-2.91h0a1.11,1.11,0,0,1,1.07-.06h0a1.1,1.1,0,0,1,.54,1.07h0a2.87,2.87,0,0,1-1.25,2.74h0a1.24,1.24,0,0,1-.71.28h0a.71.71,0,0,1-.37-.1m4.18,3.86c.42-1.18.89-1.77,1.55-1.84h0c.65-.06.76.48.47,1.61h0c-.42,1.13-.95,1.72-1.55,1.84h-.1c-.56,0-.71-.55-.37-1.61m-14.72,4.28a1.53,1.53,0,0,1-.71-1.42h0a3.29,3.29,0,0,1,.71-2h0A3.93,3.93,0,0,1,229.12,61h0a2.82,2.82,0,0,1,1.61.18h0a1.45,1.45,0,0,1,.53,1.43h0a3.18,3.18,0,0,1-2.2,3h0a4.11,4.11,0,0,1-.85.1h0a2.37,2.37,0,0,1-.7-.1M232.76,70c-.19-.3-.13-.66.05-1.2h0a3.17,3.17,0,0,1,2.2-2.14h0c.9-.07,1.07.41.67,1.54h0a3.19,3.19,0,0,1-2.1,2.09h0l-.26,0h0a.57.57,0,0,1-.56-.32m4.7,3a2.77,2.77,0,0,1,1.37-1.73h0c.53-.24.71.06.42.89h0a2.68,2.68,0,0,1-1.31,1.67h0a.93.93,0,0,1-.39.12h0c-.27,0-.31-.3-.09-1M183.31,5a4.44,4.44,0,0,0-2.91,1.72h0a.41.41,0,0,0,.23.67h0a2.75,2.75,0,0,0,1.49-.13h0c1.66-.52,2.68-1.06,3-1.84h0c.12-.29,0-.51-.36-.54h-.34a5.07,5.07,0,0,0-1.15.13m16.55.6c-.76.36-1.11.83-1.11,1.37h0c0,.53.41,1.07,1.24,1.49h0a7.83,7.83,0,0,0,3.1.71h0a5.86,5.86,0,0,0,3-.6h0c.77-.36,1.07-.83,1-1.36h0a2.2,2.2,0,0,0-1.44-1.44h0a7,7,0,0,0-2.92-.64h0l-.43,0h0a5.89,5.89,0,0,0-2.44.49m13,.48c-.66.3-.89.71-.71,1.31h0a4.56,4.56,0,0,0,1.9,2h0a11.18,11.18,0,0,0,3.46,1.42h0a6.36,6.36,0,0,0,2.74-.16h0a1,1,0,0,0,.42-1.44h0a4.94,4.94,0,0,0-1.91-1.91h0a10.9,10.9,0,0,0-3.16-1.18h0a7,7,0,0,0-1.55-.19h0a3.27,3.27,0,0,0-1.19.19m-24.48.12c-2.15.41-3.4,1.12-3.75,2.2h0a.89.89,0,0,0,.53,1.13h0a5.39,5.39,0,0,0,2.32.18h0q3.5-.63,3.94-2.32h0c.06-.48-.24-.84-.78-1.08h0a6.67,6.67,0,0,0-1.47-.15h0c-.26,0-.53,0-.79,0M207.14,9a1.72,1.72,0,0,0-1,1.72h0a3.34,3.34,0,0,0,1.66,2h0a7.44,7.44,0,0,0,3.4,1.14h0a4.76,4.76,0,0,0,2.92-.48h0a1.5,1.5,0,0,0,.77-1.78h0a3.26,3.26,0,0,0-1.66-2h0a9.22,9.22,0,0,0-3.17-1.07h0a7.75,7.75,0,0,0-.82,0h0a4.27,4.27,0,0,0-2.09.46m-14.83.89a2.32,2.32,0,0,0-1.25,1.6h0A1.52,1.52,0,0,0,192,13.1h0a4.86,4.86,0,0,0,2.74.53h0a5.46,5.46,0,0,0,2.92-.9h0A2.1,2.1,0,0,0,198.75,11h0a1.64,1.64,0,0,0-1.08-1.49h0A5.83,5.83,0,0,0,195.05,9h0a6.52,6.52,0,0,0-2.74.89m-19.48-.36a4.91,4.91,0,0,0-2,1.61h0c-.42.59-.18.65.71.24h0A5.71,5.71,0,0,0,173.6,9.7h0c.2-.33.21-.5,0-.5h0a2.36,2.36,0,0,0-.81.32m3.22.36a5.34,5.34,0,0,0-2.86,2.2h0c-.48,1,0,1.2,1.43.78h0a4.94,4.94,0,0,0,3-2.32h0c.23-.6.08-.88-.47-.88h0a4,4,0,0,0-1.14.22m4.28,1.9a4.32,4.32,0,0,0-3.21,2.56h0a.91.91,0,0,0,.36,1.2h0a2.73,2.73,0,0,0,1.67.11h0a5.09,5.09,0,0,0,2.14-1.07h0a3.19,3.19,0,0,0,1.19-1.6h0a1,1,0,0,0-.36-1.14h0a2.05,2.05,0,0,0-.87-.18h0a4.56,4.56,0,0,0-.92.12m20,1.32a2.61,2.61,0,0,0-1.37,2.2h0a2.93,2.93,0,0,0,1.43,2.44h0A6.66,6.66,0,0,0,204,18.88h0a5.72,5.72,0,0,0,3.47-1h0a2.45,2.45,0,0,0,1.18-2.38h0A3.3,3.3,0,0,0,207,13.21h0a6.44,6.44,0,0,0-3.46-1h0a5.72,5.72,0,0,0-3.27.9M167.41,14a5.1,5.1,0,0,0-1.85,1.84h0a.74.74,0,0,0-.17.66h0a.78.78,0,0,0,.65-.17h0a6.52,6.52,0,0,0,1.9-1.91h0c.23-.42.24-.64,0-.64h0a1.34,1.34,0,0,0-.57.22m18.23.95a7,7,0,0,0-2.8,1.19h0a3.87,3.87,0,0,0-1.49,2.14h0a1.73,1.73,0,0,0,.71,1.91h0a4,4,0,0,0,2.62.48h0a5.82,5.82,0,0,0,3-1.31h0a3.18,3.18,0,0,0,1.43-2.2h0a1.63,1.63,0,0,0-.9-1.79h0a3.17,3.17,0,0,0-1.76-.49h0a4.45,4.45,0,0,0-.79.07m22.87,4a2.87,2.87,0,0,0-1.19,2.74h0a4.5,4.5,0,0,0,1.79,3h0A6.81,6.81,0,0,0,213,26.32h0a4.29,4.29,0,0,0,3.39-.95h0a3.15,3.15,0,0,0,1-2.86h0a5.25,5.25,0,0,0-1.91-3h0a7.21,7.21,0,0,0-3.57-1.43h0l-.6,0h0a4.41,4.41,0,0,0-2.74.86m-13.58-.18a5.57,5.57,0,0,0-3.16,1.13h0a3.88,3.88,0,0,0-1.43,2.56h0a2.84,2.84,0,0,0,1.14,2.45h0a4.19,4.19,0,0,0,3.15.95h0a5.49,5.49,0,0,0,3.34-1.3h0a3.47,3.47,0,0,0,1.36-2.63h0A3.08,3.08,0,0,0,198,19.53h0a4.5,4.5,0,0,0-2.73-.79h-.36m-17.63,3A4,4,0,0,0,175.15,23h0a4.47,4.47,0,0,0-1.25,2.14h0a1.92,1.92,0,0,0,.42,1.84h0a2,2,0,0,0,1.9.55h0a4.7,4.7,0,0,0,2.27-1.31h0A4.78,4.78,0,0,0,179.8,24h0a1.8,1.8,0,0,0-.6-1.86h0A1.83,1.83,0,0,0,178,21.7h0a2.61,2.61,0,0,0-.66.09m22.93,3.81a4.15,4.15,0,0,0-1.62,3.34h0a5,5,0,0,0,1.74,3.57h0A6.07,6.07,0,0,0,204.51,34h0a5.66,5.66,0,0,0,4-1.42h0a4.24,4.24,0,0,0,1.37-3.46h0a4.65,4.65,0,0,0-1.85-3.4h0a6.61,6.61,0,0,0-3.93-1.42h0a5.66,5.66,0,0,0-3.87,1.31m-15,1.31a5.35,5.35,0,0,0-3.1,1.55h0a5.17,5.17,0,0,0-1.49,2.92h0a3.32,3.32,0,0,0,.9,2.8h0a3.42,3.42,0,0,0,2.92,1h0a6,6,0,0,0,3.27-1.61h0a5.11,5.11,0,0,0,1.54-3.09h0a3.1,3.1,0,0,0-1.07-2.69h0a3.28,3.28,0,0,0-2.31-.88h0a5.14,5.14,0,0,0-.66.05m24.13,6.85a4.81,4.81,0,0,0-1.43,3.81h0a6.9,6.9,0,0,0,2,4.11h0a5.44,5.44,0,0,0,4.05,1.79h0a4.71,4.71,0,0,0,3.64-1.55h0a5,5,0,0,0,1.19-3.81h0A6,6,0,0,0,217,34.18h0a6.05,6.05,0,0,0-3.88-1.79h-.22a4.87,4.87,0,0,0-3.52,1.38m-18.94,1.12a5.18,5.18,0,0,0-1.61,3.57h0A4.53,4.53,0,0,0,190.17,42h0a5,5,0,0,0,3.69,1.43h0a6.29,6.29,0,0,0,3.87-1.72h0a5.29,5.29,0,0,0,1.55-3.7h0a4.5,4.5,0,0,0-1.49-3.52h0a5.66,5.66,0,0,0-3.69-1.25h0a5.9,5.9,0,0,0-3.69,1.61m9.4,8.11A6,6,0,0,0,198,47.47h0a6,6,0,0,0,1.79,4.46h0a6.54,6.54,0,0,0,4.47,1.78h0a5.87,5.87,0,0,0,4.28-1.84h0a6.38,6.38,0,0,0,2-4.34h0V47.4a6.36,6.36,0,0,0-2-4.4h0a6.07,6.07,0,0,0-4.28-1.79h0A6.08,6.08,0,0,0,199.81,43m-18.1,1.12a5.36,5.36,0,0,0-1.31,3.35h0a5.28,5.28,0,0,0,1.31,3.32h0a4.39,4.39,0,0,0,3,1.5h0A4.08,4.08,0,0,0,188,51h0a5.39,5.39,0,0,0,1.37-3.57h0A5.4,5.4,0,0,0,188,43.89h0a4.35,4.35,0,0,0-3.21-1.31h0a4.69,4.69,0,0,0-3,1.54m28.17,9.12a6.59,6.59,0,0,0-2,4.11h0a4.64,4.64,0,0,0,1.43,3.81h0a4.88,4.88,0,0,0,3.74,1.31h0A6.24,6.24,0,0,0,217,60.74h0a6,6,0,0,0,1.79-3.87h0A5.08,5.08,0,0,0,217.57,53h0a4.54,4.54,0,0,0-3.64-1.62h0a6,6,0,0,0-4.05,1.85m-19.71-.36a4.48,4.48,0,0,0-1.37,3.52h0A5.21,5.21,0,0,0,190.41,60h0a5.47,5.47,0,0,0,3.69,1.53h0a5,5,0,0,0,3.69-1.19h0a4.45,4.45,0,0,0,1.49-3.51h0a5.06,5.06,0,0,0-1.55-3.69h0a5.92,5.92,0,0,0-3.87-1.67h-.25a4.7,4.7,0,0,0-3.44,1.38m-8.64,7.86a3.14,3.14,0,0,0-.9,2.75h0a5.32,5.32,0,0,0,1.49,3h0a5.07,5.07,0,0,0,3.1,1.43h0a3.56,3.56,0,0,0,3-.71h0a3.22,3.22,0,0,0,1.07-2.74h0a5.39,5.39,0,0,0-1.54-3.16h0a5.75,5.75,0,0,0-3.27-1.55h0c-.17,0-.33,0-.5,0h0a3.26,3.26,0,0,0-2.42,1m18.82,1.67A5,5,0,0,0,198.61,66h0a4.23,4.23,0,0,0,1.62,3.39h0a5.93,5.93,0,0,0,3.87,1.25h0A5.93,5.93,0,0,0,208,69.2h0a4.63,4.63,0,0,0,1.85-3.4h0a4.22,4.22,0,0,0-1.37-3.45h0a6,6,0,0,0-4-1.49h0a6.77,6.77,0,0,0-4.16,1.55m-26,5.49a1.91,1.91,0,0,0-.42,1.83h0a4,4,0,0,0,1.25,2.15h0a3.89,3.89,0,0,0,2.15,1.25h0a2,2,0,0,0,1.9-.36h0a1.72,1.72,0,0,0,.6-1.78h0a4.59,4.59,0,0,0-1.31-2.32h0a4.43,4.43,0,0,0-2.27-1.25h0a4.22,4.22,0,0,0-.49,0h0a1.9,1.9,0,0,0-1.41.52m38.66.7a6.89,6.89,0,0,0-3.87,1.62h0a4.47,4.47,0,0,0-1.79,3.09h0A2.78,2.78,0,0,0,208.51,76h0a4.7,4.7,0,0,0,3.34.84h0a7,7,0,0,0,3.57-1.49h0a5,5,0,0,0,1.91-2.92h0a3.05,3.05,0,0,0-1-2.86h0a4,4,0,0,0-2.84-1h0l-.55,0M191.48,70a2.93,2.93,0,0,0-1.14,2.5h0A3.88,3.88,0,0,0,191.77,75h0a5.64,5.64,0,0,0,3.16,1.13h0a4.47,4.47,0,0,0,3.09-.83h0A2.93,2.93,0,0,0,199.33,73h0A3.5,3.5,0,0,0,198,70.4h0a5.33,5.33,0,0,0-3.34-1.31h-.33a4.2,4.2,0,0,0-2.82.9m-9.42,4.76a1.72,1.72,0,0,0-.71,1.9h0a3.81,3.81,0,0,0,1.49,2.16h0a5.57,5.57,0,0,0,2.8,1.18h0a3.47,3.47,0,0,0,2.55-.41h0a1.62,1.62,0,0,0,.9-1.78h0a3.14,3.14,0,0,0-1.43-2.22h0a6.35,6.35,0,0,0-3-1.3h0a4.75,4.75,0,0,0-.81-.07h0a3,3,0,0,0-1.81.54m18.29,2.45a2.81,2.81,0,0,0-1.43,2.38h0a2.72,2.72,0,0,0,1.37,2.32h0a5.2,5.2,0,0,0,3.27.83h0a6.65,6.65,0,0,0,3.46-1h0a3.09,3.09,0,0,0,1.66-2.33h0a2.33,2.33,0,0,0-1.18-2.33h0a5.74,5.74,0,0,0-3.47-1h0a7.09,7.09,0,0,0-3.68,1.14m-35,1.31a7,7,0,0,0,2,2.43h0c.79.42,1,.31.53-.41h0A5.81,5.81,0,0,0,166,78.61h0a1.46,1.46,0,0,0-.54-.18h0c-.06,0-.1,0-.1.07m12.09.89a.89.89,0,0,0-.36,1.18h0a4.17,4.17,0,0,0,3.21,2.57h0a2.39,2.39,0,0,0,1.79-.06h0c.36-.17.48-.59.36-1.19h0c-.36-1.19-1.49-2.08-3.33-2.67h0a1.94,1.94,0,0,0-.61-.1h0a2.49,2.49,0,0,0-1.06.27M211.19,81a8.13,8.13,0,0,0-3.4,1.19h0a3.66,3.66,0,0,0-1.66,2h0a1.75,1.75,0,0,0,1,1.73h0a5,5,0,0,0,2.91.42h0a7.51,7.51,0,0,0,3.17-1.07h0a3.31,3.31,0,0,0,1.66-2h0a1.51,1.51,0,0,0-.77-1.79h0A3.92,3.92,0,0,0,211.9,81h0c-.23,0-.46,0-.71,0M192,81.89a1.39,1.39,0,0,0-.89,1.55h0a2.59,2.59,0,0,0,1.25,1.67h0a5.84,5.84,0,0,0,2.74.83h0a5.13,5.13,0,0,0,2.62-.48h0a1.76,1.76,0,0,0,1.08-1.54h0a2.11,2.11,0,0,0-1.14-1.73h0a5.7,5.7,0,0,0-2.93-.83h-.42a4.41,4.41,0,0,0-2.31.54m-18.7.12c-.33.08-.27.43-.06.77h0a5.38,5.38,0,0,0,2.86,2.27h0c1.33.44,2,.24,1.61-.66h0a5.59,5.59,0,0,0-3-2.32h0a3.34,3.34,0,0,0-.85-.12h0a2.57,2.57,0,0,0-.52.06m-2.44,1.85a5.79,5.79,0,0,0,2,1.6h0c.83.42,1.07.3.77-.23h0a4.73,4.73,0,0,0-2.08-1.73h0a2.13,2.13,0,0,0-.74-.24h0c-.24,0-.22.19,0,.6m46.7.29a11.86,11.86,0,0,0-3.46,1.37h0a4.57,4.57,0,0,0-1.9,2h0a1,1,0,0,0,.71,1.37h0a5.21,5.21,0,0,0,2.74,0h0c2.68-.53,4.41-1.55,5.07-3h0c.29-.71.17-1.19-.42-1.48h0a3.93,3.93,0,0,0-1.59-.32h0a5.63,5.63,0,0,0-1.15.13m-32.35,1.31a.83.83,0,0,0-.53,1.08h0c.35,1,1.86,1.9,3.75,2.2h0a4.62,4.62,0,0,0,2.26-.12h0c.63-.26.84-.54.78-1h0a2.6,2.6,0,0,0-1.31-1.43h0a7.19,7.19,0,0,0-2.63-.89h0a6,6,0,0,0-.77,0h0a4.42,4.42,0,0,0-1.55.21m17.93.36a7.66,7.66,0,0,0-3.1.72h0c-.83.41-1.24.88-1.24,1.42h0a1.48,1.48,0,0,0,1.11,1.38h0a6.19,6.19,0,0,0,2.87.47h0a8.12,8.12,0,0,0,2.92-.59h0c.83-.42,1.31-.89,1.44-1.43h0c0-.59-.25-1.08-1-1.43h0a5.22,5.22,0,0,0-2.54-.55h-.44M180.4,88.21A4.45,4.45,0,0,0,183.32,90h0c1.49.48,2.18.11,1.84-.51h0a5,5,0,0,0-3-1.78h0a5.15,5.15,0,0,0-1.28-.22h0c-.56,0-.71.25-.44.76m-3,.47A6.81,6.81,0,0,0,180,90.23h0c1,.36,1.6.23,1.37-.11h0a7.93,7.93,0,0,0-2.74-1.62h0a4.46,4.46,0,0,0-1.1-.22h0c-.31,0-.36.13-.16.4m32.05.24a15.7,15.7,0,0,0-2.91.78h0c-.58.27-1.3.76-1.37,1.17h0v0h0c0,.43.19.76.83,1h0a6.57,6.57,0,0,0,2.44.06h0c1.63-.13,3.75-.83,4.17-1.78h0c.18-.42,0-.74-.65-1h0a3.93,3.93,0,0,0-1.49-.27h0a6.31,6.31,0,0,0-1,.09m-16.26.66c-.45.14-.89.48-.83.9h0c.29.83,1.42,1.3,3.46,1.42h0c2.08.12,3.09-.24,3.09-1.07h0c0-.35-.3-.65-.95-1h0a9.49,9.49,0,0,0-2.44-.53h-.24a9.8,9.8,0,0,0-2.09.25m21.66.71c-1.34.17-4.26,1.31-4.68,2.15h0c-.36.77.65.89,3,.42h0c.53-.15,1.07-.29,1.59-.42h0c-.22.15-.75.35-.7.47h0a4.14,4.14,0,0,0,2.2-.12h0A16.41,16.41,0,0,0,220.37,91h0c.74-.56.06-.6-2,0h0c-.54.19-1.07.37-1.61.54h0a8.24,8.24,0,0,0,.84-.65h0c.32-.34.13-.61-.36-.72h0a2.56,2.56,0,0,0-.58,0h0a14.11,14.11,0,0,0-1.83.17m-9.67.46a.18.18,0,0,0,0,0h0a.2.2,0,0,0,0,0m0,0h0m0,0h0m0,0h0m0,0h0m0,0Zm0,0h0m0,0h0m0,0h0m0,0h0m0,0Zm0,0Zm0,0h0Zm0,0h0m0,0h0m0,0h0m0,0h0m-17.7.83c.3.59,1.37,1.07,3.23,1.38h0c1.84.29,2.67.18,2.49-.42h0c-.3-.66-1.37-1.14-3.34-1.43h0a9.34,9.34,0,0,0-1.48-.14h0c-.81,0-1.1.21-.9.61m-4.35,0a7.63,7.63,0,0,0,2.52,1.07h0c1.36.37,1.83.37,1.54,0h0a6.27,6.27,0,0,0-2.56-1.13h0a3.7,3.7,0,0,0-1-.16h0c-.37,0-.6.09-.47.22m18.75-.06c-1.73,0-3.55.5-3.55,1.13h0c0,.72,1.18,1,3.39,1h0c2.21,0,3.39-.47,3.64-1.13h0c.11-.3-.13-.53-.77-.72h0a8.7,8.7,0,0,0-2.56-.24h-.15m2.71.24Zm0,0h0m0,0h0m0,0h0m0,0h0m0,0h0m0,0h0m3.19,1.41c-2.2.3-3.4.65-3.58,1.07h0c-.12.48.84.6,2.81.36h0c2-.24,3.16-.6,3.51-1h0c.22-.32-.24-.46-1.41-.46h0c-.37,0-.81,0-1.33,0m-13.93.78c.23.41,1.18.71,2.91.77h0c1.72.12,2.62,0,2.62-.42h0c0-.41-1-.65-2.85-.76h0c-.47,0-.88,0-1.23,0h0c-1.06,0-1.55.15-1.45.46"/></g></g></svg>