<?xml version="1.0"?>
<svg xmlns="http://www.w3.org/2000/svg" id="Capa_1" enable-background="new 0 0 512 512" height="512px" viewBox="0 0 512 512" width="512px"><g><g><path d="m467 121c-5.852 0-11.446 1.123-16.579 3.164-5.21-19.089-22.703-33.164-43.421-33.164-24.813 0-45 20.187-45 45v75h-212v-75c0-24.813-20.187-45-45-45-20.718 0-38.211 14.075-43.421 33.164-5.133-2.041-10.727-3.164-16.579-3.164-24.813 0-45 20.187-45 45v180c0 24.813 20.187 45 45 45 5.852 0 11.446-1.123 16.579-3.164 5.21 19.089 22.703 33.164 43.421 33.164 24.813 0 45-20.187 45-45v-75h212v75c0 24.813 20.187 45 45 45 20.718 0 38.211-14.075 43.421-33.164 5.133 2.041 10.727 3.164 16.579 3.164 24.813 0 45-20.187 45-45v-180c0-24.813-20.187-45-45-45zm-347 255c0 8.271-6.729 15-15 15s-15-6.729-15-15v-30c0-8.284-6.716-15-15-15s-15 6.716-15 15c0 8.271-6.729 15-15 15s-15-6.729-15-15v-180c0-8.271 6.729-15 15-15s15 6.729 15 15c0 8.284 6.716 15 15 15s15-6.716 15-15v-30c0-8.271 6.729-15 15-15s15 6.729 15 15zm30-105v-30h212v30zm332 75c0 8.271-6.729 15-15 15s-15-6.729-15-15c0-8.284-6.716-15-15-15s-15 6.716-15 15v30c0 8.271-6.729 15-15 15s-15-6.729-15-15v-240c0-8.271 6.729-15 15-15s15 6.729 15 15v30c0 8.284 6.716 15 15 15s15-6.716 15-15c0-8.271 6.729-15 15-15s15 6.729 15 15z" data-original="#000000" class="active-path" data-old_color="#000000" fill="#F6FFFC"/></g></g> </svg>
