<?xml version="1.0"?>
<svg xmlns="http://www.w3.org/2000/svg" id="Capa_1" enable-background="new 0 0 511.153 511.153" height="512px" viewBox="0 0 511.153 511.153" width="512px"><g><g><path d="m459.809 264.91c4.224-16.814 6.429-34.23 6.429-51.898 0-51.522-18.645-101.251-52.499-140.027-2.725-3.121-7.463-3.441-10.583-.717s-3.441 7.462-.717 10.582c31.468 36.042 48.799 82.268 48.799 130.162 0 14.098-1.508 28.025-4.418 41.573l-24.984-2.708c-4.116-.441-7.817 2.531-8.265 6.648-.446 4.118 2.53 7.818 6.648 8.265l22.849 2.477c-10.546 35.585-30.989 67.88-59.509 92.815l-36.988 32.339c-2.172 1.898-4.952 2.836-7.83 2.64s-5.506-1.502-7.4-3.677l-46.353-53.233c-3.867-4.44-3.431-11.234.972-15.144l13.897-12.342c.005-.004.01-.009.015-.013l13.402-11.903c8.398-7.458 13.214-18.177 13.214-29.409v-14.711l61.651 6.684c.275.03.548.044.818.044 3.779 0 7.03-2.849 7.447-6.692.446-4.118-2.53-7.818-6.648-8.265l-65.311-7.081c-5.232-15.585-19.965-26.849-37.29-26.849-19.948 0-36.463 14.93-38.987 34.201l-24.231-.898v-52.337c0-4.142-3.358-7.5-7.5-7.5s-7.5 3.358-7.5 7.5v51.781l-34.543-1.281c-2.411-3.128-5.842-5.391-9.81-6.349-30.333-7.33-61.8-7.788-93.707-1.414l17.824-31.077c2.048-3.571 3.13-7.634 3.13-11.749v-56.227c0-13.893 5.732-27.395 15.726-37.045l5.651-5.457h29.033c36.776 0 66.695 29.919 66.695 66.695v.159c0 4.142 3.358 7.5 7.5 7.5s7.5-3.358 7.5-7.5v-.159c0-45.047-36.648-81.695-81.695-81.695h-30.706c-15.071 0-27.333-12.262-27.333-27.333v-35.722c0-1.964 1.598-3.563 3.563-3.563h165.46c46.479 0 91.658 16.438 127.217 46.285 3.173 2.663 7.903 2.25 10.566-.923s2.25-7.903-.923-10.566c-38.255-32.111-86.859-49.796-136.859-49.796h-165.46c-10.235 0-18.563 8.327-18.563 18.563v35.723c0 17.533 10.715 32.609 25.939 39.028-11.664 12.288-18.311 28.818-18.311 45.807v56.227c0 1.501-.395 2.984-1.142 4.287l-28.782 50.183c-2.037 3.552-2.532 7.674-1.394 11.606 1.138 3.933 3.757 7.154 7.375 9.069l19.48 10.313-.103 77.899c-.02 14.982 5.8 29.071 16.387 39.671s24.668 16.439 39.65 16.439h37.252v88.838c0 4.142 3.358 7.5 7.5 7.5s7.5-3.358 7.5-7.5v-88.838h28.168c4.142 0 7.5-3.358 7.5-7.5s-3.358-7.5-7.5-7.5h-80.42c-10.972 0-21.284-4.275-29.037-12.039-3.339-3.343-6.026-7.162-8.007-11.301 9.232 2.456 19.09 3.689 29.546 3.689 13.74 0 28.505-2.121 44.21-6.365 4.347-1.175 8.029-3.963 10.357-7.711l92.838-39.571c-2.079 7.985-.324 16.837 5.464 23.484l46.353 53.233c2.099 2.41 4.578 4.367 7.315 5.827v94.592c0 4.142 3.358 7.5 7.5 7.5s7.5-3.358 7.5-7.5v-91.739c5.193-.571 10.084-2.69 14.101-6.201l36.988-32.339c32.954-28.812 55.887-66.758 66.363-108.414.008-.017.011-.034.016-.05zm-211.985-1.243v11.528l-23.542 16.818c-.064.045-.095.054-.095.054-.059.01-.21-.068-.239-.123 0 0-.011-.03-.011-.108v-29.055zm-30.632 41.701c5.091 2.621 11.15 2.18 15.809-1.149l26.682-19.062c1.971-1.408 3.14-3.681 3.14-6.103v-25.252c0-13.417 10.916-24.333 24.333-24.333 12 0 21.991 8.733 23.97 20.176.002.008.003.016.004.024.231 1.344.358 2.723.358 4.132v17.537c0 6.949-2.979 13.58-8.175 18.193l-12.379 10.994-109.079 46.493c7.341-28.439 6.86-57.212-1.46-85.852l28.541 1.058v29.611c.002 5.728 3.165 10.913 8.256 13.533zm-56.088 53.951c-28.745 7.767-52.722 7.897-73.144.405-.232-.335-.461-.664-.693-.999l.108-82.421c.004-2.782-1.532-5.336-3.991-6.638l-21.195-11.187c-1.174-.62-1.228-2.356-.037-2.942.048-.023.089-.04.124-.049 33.723-8.566 66.959-9.011 98.786-1.319.846.204 1.549.83 1.836 1.633 12.151 34.005 12.141 68.292-.033 101.908-.284.785-.943 1.388-1.761 1.609z" data-original="#000000" class="active-path" data-old_color="#000000" fill="#F6FFFC"/></g></g> </svg>
