<?xml version="1.0" encoding="utf-8"?>
<!-- Generator: Adobe Illustrator 22.0.1, SVG Export Plug-In . SVG Version: 6.00 Build 0)  -->
<svg version="1.1" id="Calque_1" xmlns="http://www.w3.org/2000/svg" xmlns:xlink="http://www.w3.org/1999/xlink" x="0px" y="0px"
	 viewBox="0 0 64 80" style="enable-background:new 0 0 64 80;" xml:space="preserve">
<style type="text/css">
	.st0{fill:#F6FFFC;}
</style>
<title>schedule-clock-time</title>
<g>
	<path class="st0" d="M32,62c-9.2,0-17.8-4.2-23.5-11.4c-0.4-0.4-0.3-1.1,0.1-1.4s1.1-0.3,1.4,0.1c0,0,0,0,0,0
		c9.6,12.1,27.2,14.2,39.3,4.6C56.1,48.6,60,40.6,60,32c0-0.6,0.4-1,1-1s1,0.4,1,1C62,48.6,48.6,62,32,62z"/>
	<polygon class="st0" points="6,54.6 4.4,43.9 14.5,47.9 	"/>
	<path class="st0" d="M3,33c-0.6,0-1-0.4-1-1C2,15.4,15.4,2,32,2c9.3,0,18.1,4.3,23.8,11.7c0.3,0.4,0.3,1.1-0.2,1.4
		s-1.1,0.3-1.4-0.2C44.8,2.7,27.2,0.4,15,9.8C8,15.1,4,23.3,4,32C4,32.6,3.6,33,3,33z"/>
	<polygon class="st0" points="58.3,9.8 59.7,20.5 49.8,16.4 	"/>
	<path class="st0" d="M32,56c-5.7,0-11.3-2.1-15.7-5.8c-0.4-0.3-0.5-1-0.2-1.4c0.3-0.4,1-0.5,1.4-0.2c0,0,0.1,0,0.1,0.1
		c9.2,7.9,23.1,6.9,31-2.3c5.5-6.4,6.9-15.4,3.5-23.1c-0.2-0.5,0-1.1,0.5-1.3c0.5-0.2,1.1,0,1.3,0.5c5.3,12.2-0.3,26.3-12.5,31.6
		C38.5,55.3,35.3,56,32,56z"/>
	<path class="st0" d="M10.9,42.2c-0.4,0-0.8-0.2-0.9-0.6C4.7,29.4,10.3,15.3,22.4,10c8.4-3.7,18.3-2.2,25.2,3.8
		c0.4,0.3,0.5,1,0.2,1.4c-0.3,0.4-1,0.5-1.4,0.2c0,0-0.1-0.1-0.1-0.1c-9.2-7.9-23.1-6.9-31,2.3C9.8,24,8.5,33,11.8,40.8
		c0.2,0.5,0,1.1-0.5,1.3C11.2,42.1,11,42.2,10.9,42.2L10.9,42.2z"/>
	<rect x="31" y="13" class="st0" width="2" height="4"/>
	<rect x="12" y="31" class="st0" width="4" height="2"/>
	<rect x="48" y="31" class="st0" width="4" height="2"/>
	<rect x="31" y="48" class="st0" width="2" height="4"/>
	<path class="st0" d="M29,36c-0.6,0-1-0.4-1-1c0-0.3,0.1-0.5,0.3-0.7l14-14c0.4-0.4,1-0.4,1.4,0c0.4,0.4,0.4,1,0,1.4l-14,14
		C29.5,35.9,29.3,36,29,36z"/>
	<path class="st0" d="M35,36c-0.3,0-0.5-0.1-0.7-0.3l-10-10c-0.4-0.4-0.4-1,0-1.4c0.4-0.4,1-0.4,1.4,0l10,10c0.4,0.4,0.4,1,0,1.4
		C35.5,35.9,35.3,36,35,36z"/>
</g>
</svg>
