<svg id="Capa_1" data-name="Capa 1" xmlns="http://www.w3.org/2000/svg" viewBox="0 0 512 512"><defs><style>.cls-1{fill:#f6fffc;}</style></defs><title>info</title><path class="cls-1" d="M256,85.33A42.67,42.67,0,1,0,298.67,128,42.72,42.72,0,0,0,256,85.33Zm0,64A21.33,21.33,0,1,1,277.33,128,21.36,21.36,0,0,1,256,149.33Z"/><path class="cls-1" d="M288,192H202.67A10.66,10.66,0,0,0,192,202.67v42.66A10.66,10.66,0,0,0,202.67,256h10.66V416A10.66,10.66,0,0,0,224,426.67h64A10.66,10.66,0,0,0,298.67,416V202.67A10.66,10.66,0,0,0,288,192ZM277.33,405.33H234.67v-160A10.66,10.66,0,0,0,224,234.67H213.33V213.33h64v192Z"/><path class="cls-1" d="M256,0C114.84,0,0,114.84,0,256S114.84,512,256,512,512,397.16,512,256,397.16,0,256,0Zm0,490.67C126.6,490.67,21.33,385.4,21.33,256S126.6,21.33,256,21.33,490.67,126.6,490.67,256,385.4,490.67,256,490.67Z"/></svg>