<svg xmlns="http://www.w3.org/2000/svg" viewBox="0 0 512 512"><defs><style>.cls-1{fill:#f6fffc;}</style></defs><title>Fichier 1</title><g id="Calque_2" data-name="Calque 2"><g id="Layer_1" data-name="Layer 1"><path class="cls-1" d="M509.07,82.93A10.08,10.08,0,0,0,502,80H434V10A10,10,0,0,0,424,0H10A10,10,0,0,0,0,10V462a50.06,50.06,0,0,0,50,50H464c9.64,0,19.75-4,27.45-9.59A50.37,50.37,0,0,0,512,462V224.86a10,10,0,0,0-20,0V462a29,29,0,1,1-58,0V100h58v34.86a10,10,0,0,0,20,0V90A10.08,10.08,0,0,0,509.07,82.93ZM20,20H414V160H20ZM50,492a30,30,0,0,1-30-30V180H414V462a49.73,49.73,0,0,0,10,30Z"/><circle class="cls-1" cx="502" cy="179.86" r="10"/><path class="cls-1" d="M170,60a10,10,0,0,0,0-20H139.92a10,10,0,0,0-10,10v80a10,10,0,0,0,10,10H170a10,10,0,0,0,0-20H149.92V100H167a10,10,0,0,0,0-20H149.92V60Z"/><path class="cls-1" d="M302.48,40.22A10,10,0,0,0,290.69,48l-9.79,48L265,46.92a10,10,0,0,0-19.25.86L230.32,96.22l-10-48.14a10,10,0,0,0-19.58,4.09s16.66,79.66,16.84,80.13a11.89,11.89,0,0,0,11.13,7.7h.12a11.9,11.9,0,0,0,11.1-7.93c0-.08,15.7-49.28,15.7-49.28s15.92,49.22,16,49.36a11.9,11.9,0,0,0,11.14,7.7h.12a11.89,11.89,0,0,0,11.09-7.92c.15-.43,16.38-79.91,16.38-79.91a10,10,0,0,0-7.81-11.8Z"/><path class="cls-1" d="M100,40A10,10,0,0,0,90,50V96L58.51,44.9A10,10,0,0,0,40,50.15V130a10,10,0,0,0,20,0V85.45l29.64,48.13A11,11,0,0,0,102,138.7c4.87-1.38,8-5.85,8-11.4V50a10,10,0,0,0-10-10Z"/><path class="cls-1" d="M370.48,81.29c-9.37-3.59-18.1-7.5-20.87-8.76a6,6,0,0,1-1.84-5.4c.21-1.41,1.2-4.84,6-6.33,10.48-3.28,20.3,4.76,20.6,5a10,10,0,0,0,13.1-15.11c-.74-.64-18.28-15.67-39.67-9C337.11,45,329.54,53.67,328,64.22A25.64,25.64,0,0,0,338.9,89.47c.44.31,12.47,5.92,24.43,10.5,3.37,1.29,11.08,5,9.94,11.09-.81,4.39-5.92,8.94-13,8.94a25.81,25.81,0,0,1-19.3-8.43,10,10,0,0,0-15.07,13.14A46,46,0,0,0,360.22,140c16.25,0,30-10.64,32.72-25.3,2.07-11.2-2.74-25.85-22.46-33.41Z"/><path class="cls-1" d="M384,340H304a10,10,0,0,0,0,20h80a10,10,0,0,0,0-20Z"/><path class="cls-1" d="M384,380H304a10,10,0,0,0,0,20h80a10,10,0,0,0,0-20Z"/><path class="cls-1" d="M354,420H304a10,10,0,0,0,0,20h50a10,10,0,0,0,0-20Z"/><path class="cls-1" d="M264,340H50a10,10,0,0,0,0,20H264a10,10,0,0,0,0-20Z"/><path class="cls-1" d="M264,380H174a10,10,0,0,0,0,20h90a10,10,0,0,0,0-20Z"/><path class="cls-1" d="M50,400h79a10,10,0,0,0,0-20H50a10,10,0,0,0,0,20Z"/><path class="cls-1" d="M244,420H50a10,10,0,0,0,0,20H244a10,10,0,0,0,0-20Z"/><path class="cls-1" d="M110.6,299.49a10,10,0,0,0,12.8-6l4.72-13.05h31.8l4.67,13a10,10,0,1,0,18.82-6.75l-28.27-78.88a2,2,0,0,1-.1-.26,11.66,11.66,0,0,0-10.91-7.48h0a11.65,11.65,0,0,0-10.91,7.5,1.43,1.43,0,0,1-.08.22L104.6,286.68a10,10,0,0,0,6,12.81Zm33.49-63.19,8.66,24.14H135.36Z"/><path class="cls-1" d="M204,290.09a10,10,0,0,0,20,0V269.74l33.52,28a10,10,0,0,0,12.82-15.35L229.81,248.5l37.28-29.57a10,10,0,1,0-12.43-15.67L224,227.55V210.09a10,10,0,0,0-20,0Z"/><path class="cls-1" d="M59.92,300.09a10,10,0,0,0,10-10v-30H87a10,10,0,1,0,0-20H69.92v-20H90a10,10,0,1,0,0-20H59.92a10,10,0,0,0-10,10v80A10,10,0,0,0,59.92,300.09Z"/><path class="cls-1" d="M370.92,255.08a10,10,0,0,0,10-10v-35a10,10,0,1,0-20,0v35A10,10,0,0,0,370.92,255.08Z"/><path class="cls-1" d="M370.92,300.08a10,10,0,1,0-10-10A10,10,0,0,0,370.92,300.08Z"/><path class="cls-1" d="M303.92,300.09H334a10,10,0,0,0,0-20H313.92v-20H331a10,10,0,1,0,0-20H313.92v-20H334a10,10,0,0,0,0-20H303.92a10,10,0,0,0-10,10v80A10,10,0,0,0,303.92,300.09Z"/></g></g></svg>