<svg xmlns="http://www.w3.org/2000/svg" viewBox="0 0 240.02 289.56"><defs><style>.cls-1{fill:#003459;}.cls-2{fill:#23b5d3;}.cls-3{fill:#007ea7;}</style></defs><title>Fichier 1</title><g id="Calque_2" data-name="Calque 2"><g id="Logo"><circle class="cls-1" cx="188" cy="162.96" r="6.62"/><path class="cls-1" d="M240,51.6A52,52,0,0,0,136,52a6.63,6.63,0,1,0,13.25,0,38.76,38.76,0,0,1,77.51,0c0,.12,0,.24,0,.35a38.73,38.73,0,0,1-23.56,35.33,36.18,36.18,0,0,0-21.83,33.4v15.39a6.63,6.63,0,0,0,13.25,0V121.08a22.92,22.92,0,0,1,13.78-21.21A52,52,0,0,0,240,52C240,51.87,240,51.73,240,51.6Z"/><g id="_Groupe_" data-name="&lt;Groupe&gt;"><path class="cls-2" d="M210.94,131.17c.77,10-6.24,18.82-15.66,19.77a16.71,16.71,0,0,1-16.75-9.85l-8.55.76L163.53,145a4.84,4.84,0,0,0-2.69,3.74,56.64,56.64,0,0,1-3.26,12.57,4.86,4.86,0,0,0,.28,4.13l2.3,4.11,6.39,4.29a11.49,11.49,0,1,1-7.26,12.32l-7.09-4.75-4.45-.54a5.13,5.13,0,0,0-4.18,1.4,57.62,57.62,0,0,1-12.63,9.13,5.09,5.09,0,0,0-2.66,4.17l-.56,9,2.8,11.13a14.28,14.28,0,1,1-13.83,3.55l-2.82-11.19-4.35-7a6.37,6.37,0,0,0-5.44-3h0A57.65,57.65,0,0,1,92.9,197,6.38,6.38,0,0,0,87,198.83l-5.75,6.06-6.43,13.35A11.5,11.5,0,1,1,62,212.13l6.47-13.44,1.27-9A4.78,4.78,0,0,0,68,185.28a57.91,57.91,0,0,1-13-14.92,4.77,4.77,0,0,0-4.05-2.29l-9-.09L32,171.08a16.07,16.07,0,1,1-4.89-13.42l10.47-3.29,7.64-5.45a3.94,3.94,0,0,0,1.63-3.54c-.13-1.54-.19-3.09-.19-4.66a57.05,57.05,0,0,1,5.21-23.87,3.89,3.89,0,0,0,0-3.35l-2.26-4.63-6.15-4.64A11.49,11.49,0,0,1,31.23,85.8,11.49,11.49,0,0,1,51.4,92.34l6.81,5.14,6.86,1.22a57.49,57.49,0,0,1,17.21-11l1.62-9.79-2-10.11A16.48,16.48,0,0,1,69.64,55.46C67.79,46.77,73.76,38.31,83,36.57s18.2,3.87,20,12.56A15.63,15.63,0,0,1,96,65.53l1.92,9.53,4.72,7.53a1.7,1.7,0,0,0,1.43.79h0a57,57,0,0,1,29.55,8.22,1.66,1.66,0,0,0,1.56.08l7.38-3.42,8.63-9.33a11.49,11.49,0,1,1,10.48,9.7L153,98l-2.8,7.53a1.71,1.71,0,0,0,.22,1.56,56.94,56.94,0,0,1,8,15.45,4.91,4.91,0,0,0,3.29,3.16l7,2,9.11-.81a17.6,17.6,0,0,1,14.66-12c9.42-.94,17.68,6.37,18.44,16.35Z"/></g><g id="_Groupe_2" data-name="&lt;Groupe&gt;"><circle class="cls-3" cx="104.04" cy="140.72" r="42.46"/></g><path class="cls-1" d="M74.52,140.72a42.47,42.47,0,0,1,36-42,43.26,43.26,0,0,0-6.48-.49,42.47,42.47,0,0,0,0,84.93,43.26,43.26,0,0,0,6.48-.49,42.48,42.48,0,0,1-36-42Z"/><circle class="cls-1" cx="91.01" cy="129.01" r="10.97"/><circle class="cls-1" cx="99.81" cy="163.08" r="7.47"/><circle class="cls-1" cx="123.26" cy="140.72" r="6.27"/><path class="cls-3" d="M156.79,241.77h-7.08V213.34q0-5.09.24-8.07a23.08,23.08,0,0,1-1.7,1.6q-1,.87-6.76,5.54l-3.55-4.49,12.95-10.18h5.9Z"/><path class="cls-3" d="M201,216.54q0,13-5.24,19.42T180,242.38a24.13,24.13,0,0,1-5.75-.48V236a19.87,19.87,0,0,0,5.39.76q7.15,0,10.69-3.86t3.85-12.11h-.36a10.58,10.58,0,0,1-4.29,3.92,13.55,13.55,0,0,1-5.89,1.2q-5.84,0-9.18-3.64t-3.35-10q0-6.9,3.87-11t10.56-4.08a14.06,14.06,0,0,1,13.58,8.93A25.93,25.93,0,0,1,201,216.54Zm-15.36-13.49a6.83,6.83,0,0,0-5.63,2.39,10.34,10.34,0,0,0-2,6.73,8.91,8.91,0,0,0,1.82,5.92,6.87,6.87,0,0,0,5.53,2.15,8.77,8.77,0,0,0,6-2.14,6.45,6.45,0,0,0,2.44-5,12.09,12.09,0,0,0-1-5,8.89,8.89,0,0,0-2.9-3.69A7.13,7.13,0,0,0,185.64,203.05Z"/><path class="cls-1" d="M11,289.14V258.88H16v30.26Z"/><path class="cls-1" d="M43.57,289.14H38.68V275.07a6.18,6.18,0,0,0-1.07-4,4.11,4.11,0,0,0-3.38-1.3,5.38,5.38,0,0,0-4.51,1.82c-1,1.22-1.43,3.25-1.43,6.11v11.4H23.42V266.25h3.81l.68,3h.25a6.83,6.83,0,0,1,2.94-2.53,9.92,9.92,0,0,1,4.23-.89q8.24,0,8.24,8.39Z"/><path class="cls-1" d="M61.83,269.93H56.24v19.21H51.35V269.93H47.58v-2.27l3.77-1.5v-1.49c0-2.7.63-4.71,1.9-6s3.21-2,5.82-2a15.65,15.65,0,0,1,5.05.85l-1.28,3.69a11.13,11.13,0,0,0-3.44-.58,2.8,2.8,0,0,0-2.41,1,5.22,5.22,0,0,0-.75,3.08v1.49h5.59Z"/><path class="cls-1" d="M86,277.66q0,5.59-2.88,8.75a10.31,10.31,0,0,1-8,3.15,11,11,0,0,1-5.68-1.45A9.55,9.55,0,0,1,65.68,284a14.1,14.1,0,0,1-1.33-6.29q0-5.58,2.86-8.7c1.9-2.08,4.59-3.13,8.05-3.13a10.1,10.1,0,0,1,7.87,3.2A12.38,12.38,0,0,1,86,277.66Zm-16.67,0q0,7.92,5.86,7.92t5.8-7.92q0-7.86-5.84-7.85a5,5,0,0,0-4.44,2A10.3,10.3,0,0,0,69.36,277.66Z"/><path class="cls-1" d="M107,282.62a6,6,0,0,1-2.44,5.15c-1.63,1.19-4,1.79-7,1.79a16.46,16.46,0,0,1-7.35-1.39V284a18,18,0,0,0,7.51,1.86q4.5,0,4.5-2.71a2.16,2.16,0,0,0-.5-1.45,5.73,5.73,0,0,0-1.64-1.2,30,30,0,0,0-3.16-1.41A14.75,14.75,0,0,1,91.56,276a5.68,5.68,0,0,1-1.39-4,5.21,5.21,0,0,1,2.37-4.56A11.28,11.28,0,0,1,99,265.83a18.31,18.31,0,0,1,7.64,1.64l-1.58,3.66a17,17,0,0,0-6.23-1.53q-3.85,0-3.85,2.2a2.21,2.21,0,0,0,1,1.82,22.55,22.55,0,0,0,4.38,2.05,19.66,19.66,0,0,1,4.12,2,5.92,5.92,0,0,1,1.91,2.1A6.1,6.1,0,0,1,107,282.62Z"/><path class="cls-1" d="M136.66,262.69a8.13,8.13,0,0,0-6.7,3c-1.63,2-2.44,4.8-2.44,8.34,0,3.72.78,6.52,2.34,8.43a8.33,8.33,0,0,0,6.8,2.86,17.54,17.54,0,0,0,3.73-.39c1.2-.25,2.45-.58,3.75-1v4.24a22.71,22.71,0,0,1-8.08,1.35q-6.65,0-10.2-4T122.3,274a18.5,18.5,0,0,1,1.73-8.26,12.29,12.29,0,0,1,5-5.42,15.08,15.08,0,0,1,7.68-1.89,19,19,0,0,1,8.57,1.95l-1.78,4.12a26,26,0,0,0-3.24-1.27A11.59,11.59,0,0,0,136.66,262.69Z"/><path class="cls-1" d="M170.45,277.66q0,5.59-2.88,8.75a10.28,10.28,0,0,1-8,3.15,10.92,10.92,0,0,1-5.67-1.45A9.57,9.57,0,0,1,150.1,284a14.23,14.23,0,0,1-1.32-6.29q0-5.58,2.85-8.7c1.91-2.08,4.59-3.13,8.06-3.13a10.08,10.08,0,0,1,7.86,3.2C169.49,271.16,170.45,274,170.45,277.66Zm-16.66,0q0,7.92,5.85,7.92t5.8-7.92q0-7.86-5.84-7.85a5,5,0,0,0-4.44,2A10.39,10.39,0,0,0,153.79,277.66Z"/><path class="cls-1" d="M181.26,289.14l-8.7-22.89h5.14l4.66,13.31a26.76,26.76,0,0,1,1.45,5.42H184a37.52,37.52,0,0,1,1.45-5.42l4.66-13.31h5.17l-8.73,22.89Z"/><path class="cls-1" d="M198.44,260.18a2.69,2.69,0,0,1,.72-2,2.76,2.76,0,0,1,2-.7,2.47,2.47,0,0,1,2.71,2.71,2.64,2.64,0,0,1-.72,2,2.7,2.7,0,0,1-2,.71,2.76,2.76,0,0,1-2-.71A2.64,2.64,0,0,1,198.44,260.18Zm5.16,29h-4.87V266.25h4.87Z"/><path class="cls-1" d="M218.28,289.56a8,8,0,0,1-6.69-3.11q-2.4-3.1-2.4-8.71t2.43-8.77a8.06,8.06,0,0,1,6.74-3.14,7.87,7.87,0,0,1,6.87,3.34h.25a28.32,28.32,0,0,1-.35-3.9v-8.34H230v32.21H226.2l-.85-3h-.22A7.78,7.78,0,0,1,218.28,289.56Zm1.3-3.93a5.32,5.32,0,0,0,4.37-1.69c.91-1.13,1.38-2.95,1.4-5.48v-.68c0-2.89-.46-4.93-1.4-6.15a5.24,5.24,0,0,0-4.41-1.82,4.48,4.48,0,0,0-4,2.08,10.7,10.7,0,0,0-1.38,5.93,10.47,10.47,0,0,0,1.34,5.81A4.55,4.55,0,0,0,219.58,285.63Z"/></g></g></svg>