<svg xmlns="http://www.w3.org/2000/svg" viewBox="0 0 240.02 243.72"><defs><style>.cls-1{fill:#003459;}.cls-2{fill:#23b5d3;}.cls-3{fill:#007ea7;}</style></defs><title>Fichier 2</title><g id="Calque_2" data-name="Calque 2"><g id="Logo"><circle class="cls-1" cx="188" cy="162.96" r="6.62"/><path class="cls-1" d="M240,51.6A52,52,0,0,0,136,52a6.63,6.63,0,1,0,13.25,0,38.76,38.76,0,0,1,77.51,0c0,.12,0,.24,0,.35a38.73,38.73,0,0,1-23.56,35.33,36.18,36.18,0,0,0-21.83,33.4v15.39a6.63,6.63,0,0,0,13.25,0V121.08a22.92,22.92,0,0,1,13.78-21.21A52,52,0,0,0,240,52C240,51.87,240,51.73,240,51.6Z"/><g id="_Groupe_" data-name="&lt;Groupe&gt;"><path class="cls-2" d="M210.94,131.17c.77,10-6.24,18.82-15.66,19.77a16.71,16.71,0,0,1-16.75-9.85l-8.55.76L163.53,145a4.84,4.84,0,0,0-2.69,3.74,56.64,56.64,0,0,1-3.26,12.57,4.86,4.86,0,0,0,.28,4.13l2.3,4.11,6.39,4.29a11.49,11.49,0,1,1-7.26,12.32l-7.09-4.75-4.45-.54a5.13,5.13,0,0,0-4.18,1.4,57.62,57.62,0,0,1-12.63,9.13,5.09,5.09,0,0,0-2.66,4.17l-.56,9,2.8,11.13a14.28,14.28,0,1,1-13.83,3.55l-2.82-11.19-4.35-7a6.37,6.37,0,0,0-5.44-3h0A57.65,57.65,0,0,1,92.9,197,6.38,6.38,0,0,0,87,198.83l-5.75,6.06-6.43,13.35A11.5,11.5,0,1,1,62,212.13l6.47-13.44,1.27-9A4.78,4.78,0,0,0,68,185.28a57.91,57.91,0,0,1-13-14.92,4.77,4.77,0,0,0-4.05-2.29l-9-.09L32,171.08a16.07,16.07,0,1,1-4.89-13.42l10.47-3.29,7.64-5.45a3.94,3.94,0,0,0,1.63-3.54c-.13-1.54-.19-3.09-.19-4.66a57.05,57.05,0,0,1,5.21-23.87,3.89,3.89,0,0,0,0-3.35l-2.26-4.63-6.15-4.64A11.49,11.49,0,0,1,31.23,85.8,11.49,11.49,0,0,1,51.4,92.34l6.81,5.14,6.86,1.22a57.49,57.49,0,0,1,17.21-11l1.62-9.79-2-10.11A16.48,16.48,0,0,1,69.64,55.46C67.79,46.77,73.76,38.31,83,36.57s18.2,3.87,20,12.56A15.63,15.63,0,0,1,96,65.53l1.92,9.53,4.72,7.53a1.7,1.7,0,0,0,1.43.79h0a57,57,0,0,1,29.55,8.22,1.66,1.66,0,0,0,1.56.08l7.38-3.42,8.63-9.33a11.49,11.49,0,1,1,10.48,9.7L153,98l-2.8,7.53a1.71,1.71,0,0,0,.22,1.56,56.94,56.94,0,0,1,8,15.45,4.91,4.91,0,0,0,3.29,3.16l7,2,9.11-.81a17.6,17.6,0,0,1,14.66-12c9.42-.94,17.68,6.37,18.44,16.35Z"/></g><g id="_Groupe_2" data-name="&lt;Groupe&gt;"><circle class="cls-3" cx="104.04" cy="140.72" r="42.46"/></g><path class="cls-1" d="M74.52,140.72a42.47,42.47,0,0,1,36-42,43.26,43.26,0,0,0-6.48-.49,42.47,42.47,0,0,0,0,84.93,43.26,43.26,0,0,0,6.48-.49,42.48,42.48,0,0,1-36-42Z"/><circle class="cls-1" cx="91.01" cy="129.01" r="10.97"/><circle class="cls-1" cx="99.81" cy="163.08" r="7.47"/><circle class="cls-1" cx="123.26" cy="140.72" r="6.27"/><path class="cls-3" d="M156.79,241.77h-7.08V213.34q0-5.09.24-8.07a23.08,23.08,0,0,1-1.7,1.6q-1,.87-6.76,5.54l-3.55-4.49,12.95-10.18h5.9Z"/><path class="cls-3" d="M201,216.54q0,13-5.24,19.42T180,242.38a24.13,24.13,0,0,1-5.75-.48V236a19.87,19.87,0,0,0,5.39.76q7.15,0,10.69-3.86t3.85-12.11h-.36a10.58,10.58,0,0,1-4.29,3.92,13.55,13.55,0,0,1-5.89,1.2q-5.84,0-9.18-3.64t-3.35-10q0-6.9,3.87-11t10.56-4.08a14.06,14.06,0,0,1,13.58,8.93A25.93,25.93,0,0,1,201,216.54Zm-15.36-13.49a6.83,6.83,0,0,0-5.63,2.39,10.34,10.34,0,0,0-2,6.73,8.91,8.91,0,0,0,1.82,5.92,6.87,6.87,0,0,0,5.53,2.15,8.77,8.77,0,0,0,6-2.14,6.45,6.45,0,0,0,2.44-5,12.09,12.09,0,0,0-1-5,8.89,8.89,0,0,0-2.9-3.69A7.13,7.13,0,0,0,185.64,203.05Z"/></g></g></svg>